<?xml version="1.0" encoding="UTF-8"?>
<!DOCTYPE svg PUBLIC "-//W3C//DTD SVG 1.1//EN" "http://www.w3.org/Graphics/SVG/1.1/DTD/svg11.dtd">
<!-- Creator: CorelDRAW X8 -->
<svg xmlns="http://www.w3.org/2000/svg" xml:space="preserve" width="186.844mm" height="48.879mm" version="1.1" style="shape-rendering:geometricPrecision; text-rendering:geometricPrecision; image-rendering:optimizeQuality; fill-rule:evenodd; clip-rule:evenodd"
viewBox="0 0 18714 4896"
 xmlns:xlink="http://www.w3.org/1999/xlink">
 <defs>
  <style type="text/css">
   <![CDATA[
    .fil3 {fill:none}
    .fil0 {fill:#EA3249}
    .fil2 {fill:#1C1C1C;fill-rule:nonzero}
    .fil1 {fill:#EA3249;fill-rule:nonzero}
   ]]>
  </style>
   <mask id="id0">
  <linearGradient id="id1" gradientUnits="userSpaceOnUse" x1="-7491.12" y1="761.959" x2="-8295.56" y2="336.212">
   <stop offset="0" style="stop-opacity:1; stop-color:white"/>
   <stop offset="1" style="stop-opacity:0; stop-color:white"/>
  </linearGradient>
    <rect style="fill:url(#id1)" x="731" y="731" width="2720" height="3434"/>
   </mask>
   <mask id="id2">
  <linearGradient id="id3" gradientUnits="userSpaceOnUse" x1="-18843.8" y1="195.856" x2="-26201.1" y2="-3431.47">
   <stop offset="0" style="stop-opacity:1; stop-color:white"/>
   <stop offset="1" style="stop-opacity:0; stop-color:white"/>
  </linearGradient>
    <rect style="fill:url(#id3)" width="4299" height="4896"/>
   </mask>
   <mask id="id4">
  <linearGradient id="id5" gradientUnits="userSpaceOnUse" x1="1887.83" y1="1776.96" x2="6472.52" y2="2559.1">
   <stop offset="0" style="stop-opacity:1; stop-color:white"/>
   <stop offset="1" style="stop-opacity:0; stop-color:white"/>
  </linearGradient>
    <rect style="fill:url(#id5)" x="3380" y="1225" width="785" height="1223"/>
   </mask>
 </defs>
 <g id="Слой_x0020_1">
  <metadata id="CorelCorpID_0Corel-Layer"/>
  <path class="fil0" style="mask:url(#id0)" d="M3326 972c-257,-153 -557,-241 -878,-241 -474,0 -904,192 -1214,503 -311,310 -503,740 -503,1214 0,474 192,903 503,1214 310,311 740,503 1214,503 321,0 621,-88 878,-241 135,-81 148,-220 99,-297 -43,-67 -113,-99 -231,-71 -42,9 -90,37 -150,67 -179,91 -381,143 -596,143 -364,0 -694,-148 -932,-386 -238,-239 -386,-568 -386,-932 0,-364 148,-694 386,-932 238,-238 568,-386 932,-386 215,0 417,51 596,143 60,30 108,57 150,67 118,27 188,-4 231,-71 49,-78 36,-216 -99,-297z"/>
  <path class="fil0" style="mask:url(#id2)" d="M4179 4179c-7,6 -13,13 -20,19 -441,432 -1045,698 -1711,698 -676,0 -1288,-274 -1731,-717 -443,-443 -717,-1055 -717,-1731 0,-676 274,-1288 717,-1731 443,-443 1055,-717 1731,-717 666,0 1270,266 1711,698 7,6 13,12 20,19 27,27 48,53 66,77 82,109 64,227 -9,286 -70,56 -193,56 -280,-18 -22,-19 -39,-42 -60,-63 -370,-370 -882,-600 -1448,-600 -566,0 -1078,230 -1449,600 -370,371 -600,883 -600,1449 0,566 230,1078 600,1448 371,371 883,600 1449,600 566,0 1078,-229 1448,-600 21,-20 38,-43 60,-62 87,-75 210,-75 280,-18 73,58 91,177 9,285 -18,24 -39,51 -66,78z"/>
  <path class="fil1" d="M15700 3140c0,34 -12,63 -37,88 -24,24 -54,36 -90,36 -34,0 -63,-12 -87,-36 -23,-25 -35,-54 -35,-88 0,-35 12,-64 35,-88 24,-25 53,-37 87,-37 36,0 66,12 90,37 25,24 37,53 37,88z"/>
  <path id="1" class="fil1" d="M16231 2378c122,0 226,43 311,128 21,23 30,51 29,82 -2,32 -14,58 -36,79 -22,21 -50,32 -84,33 -35,1 -63,-10 -85,-33 -38,-34 -83,-51 -135,-51 -28,0 -55,6 -80,17 -25,12 -47,27 -66,46 -19,19 -34,41 -45,65 -11,25 -16,50 -16,77 0,28 5,55 16,80 11,25 27,47 46,66 20,19 42,34 66,44 24,11 51,16 79,15 54,0 99,-16 135,-49 22,-25 50,-37 85,-37 34,0 62,12 84,37 11,9 19,21 25,34 7,14 10,28 11,43 0,14 -2,29 -7,43 -5,14 -12,26 -22,37 -43,43 -90,75 -141,97 -51,22 -108,33 -170,33 -61,0 -119,-12 -172,-35 -54,-24 -101,-56 -141,-97 -41,-40 -73,-87 -97,-141 -23,-53 -35,-110 -35,-170 0,-59 12,-115 35,-168 24,-54 57,-101 98,-141 40,-41 88,-73 141,-98 54,-24 111,-36 171,-36z"/>
  <path id="2" class="fil1" d="M17106 2376c60,0 117,12 170,35 54,23 101,55 141,95 41,40 73,87 97,141 23,54 35,112 35,174 0,61 -11,118 -34,171 -24,53 -55,100 -95,140 -39,41 -86,72 -140,96 -54,23 -112,34 -174,34 -61,0 -118,-11 -172,-33 -54,-22 -101,-52 -141,-92 -40,-40 -72,-86 -95,-140 -23,-54 -35,-112 -35,-176 0,-61 11,-118 34,-171 22,-53 54,-100 93,-139 40,-40 87,-72 141,-96 55,-23 113,-37 175,-39zm0 240c-28,0 -54,5 -79,15 -24,11 -46,25 -65,44 -19,18 -33,40 -44,65 -11,25 -17,52 -17,81 0,28 6,55 17,80 11,25 25,47 44,66 19,19 41,34 65,44 25,11 51,17 79,17 28,0 55,-6 80,-17 25,-10 47,-25 65,-44 18,-19 33,-41 44,-66 11,-25 16,-52 16,-80 -2,-56 -22,-104 -60,-143 -38,-39 -86,-60 -145,-62z"/>
  <path id="3" class="fil1" d="M17980 2378c36,0 72,6 107,17 35,12 67,30 96,54 59,-47 127,-71 205,-71 43,0 84,8 124,25 39,16 74,38 104,66 30,28 54,62 72,101 17,39 26,81 26,125l0 459c0,30 -12,55 -37,77 -24,22 -52,33 -84,33 -32,0 -59,-12 -83,-35 -24,-24 -36,-52 -36,-84l0 -445c0,-23 -8,-43 -25,-58 -16,-16 -36,-24 -61,-24 -21,0 -40,7 -58,21 -17,14 -26,34 -26,61l0 445c0,33 -12,61 -36,84 -24,24 -52,35 -85,35 -31,0 -58,-10 -82,-32 -25,-21 -37,-47 -37,-78l0 -454c-1,-24 -10,-44 -28,-59 -17,-16 -36,-23 -56,-23 -23,0 -43,8 -60,24 -16,15 -25,36 -26,60l0 454c-3,29 -15,55 -38,76 -22,22 -50,32 -81,32 -17,0 -33,-3 -48,-9 -15,-6 -27,-15 -38,-26 -11,-11 -20,-23 -27,-38 -7,-15 -9,-30 -8,-46l0 -450c0,-43 8,-84 25,-122 17,-39 41,-72 70,-101 29,-29 64,-51 103,-69 40,-17 83,-25 128,-25z"/>
  <path class="fil2" d="M2449 1625c110,0 215,22 314,64 99,43 186,102 260,176 75,75 134,161 178,261 44,99 66,206 66,321 0,112 -22,218 -64,316 -43,98 -101,184 -175,259 -73,74 -159,132 -258,175 -99,43 -206,65 -321,65 -113,0 -219,-21 -318,-61 -99,-41 -186,-98 -261,-171 -74,-73 -133,-160 -175,-259 -43,-99 -65,-207 -65,-324 0,-113 21,-218 63,-316 42,-98 99,-184 172,-257 74,-74 160,-132 261,-176 100,-44 208,-68 323,-73zm0 443c-52,0 -101,10 -146,29 -45,19 -85,45 -120,79 -35,34 -62,74 -83,120 -20,47 -30,97 -30,151 0,52 10,101 30,147 21,46 48,87 83,122 35,34 75,62 120,82 45,21 94,31 146,31 51,0 100,-10 147,-31 46,-20 86,-48 120,-82 34,-35 61,-76 81,-122 20,-46 30,-95 30,-147 -4,-104 -41,-192 -111,-264 -70,-72 -159,-110 -267,-115zm2437 -439c59,0 110,21 152,64 43,47 65,98 65,152 0,61 -22,113 -65,155 -11,12 -22,23 -33,34 -12,12 -23,23 -34,34 -126,126 -252,252 -377,377 -125,125 -252,251 -381,377l673 0c57,2 107,25 152,68 43,47 65,100 65,159 0,54 -22,104 -65,152 -47,43 -98,64 -152,64l-10 0 -1102 0 -85 0 -10 0c-58,0 -109,-21 -152,-64 -45,-45 -66,-96 -64,-152 -5,-61 16,-112 61,-153l825 -828 -660 0 -10 0c-61,-4 -111,-27 -152,-68 -47,-42 -69,-94 -64,-155 -2,-56 19,-107 64,-152 41,-43 91,-64 152,-64l1207 0zm1704 10c59,25 101,65 125,120 25,55 25,112 0,170l-490 1194c-11,25 -35,55 -73,90 -37,34 -81,52 -133,52 -45,0 -88,-11 -129,-32 -40,-22 -70,-58 -88,-110l-497 -1194c-24,-58 -24,-115 0,-170 25,-55 67,-95 126,-120 58,-23 116,-22 172,3 56,25 97,67 122,125l287 649 284 -649c25,-58 66,-100 123,-125 58,-25 115,-26 171,-3zm534 -14c59,0 111,22 156,66 45,44 68,98 68,161l0 595c0,52 10,101 30,147 20,46 47,86 81,120 34,34 74,61 120,81 46,20 95,30 147,30 50,0 97,-9 142,-27 45,-18 85,-42 120,-74 35,-32 63,-70 83,-115 20,-45 30,-93 30,-145l0 -616c0,-56 22,-107 65,-152 43,-45 94,-69 155,-71 61,0 114,22 157,66 44,44 68,93 70,147l0 609c0,112 -22,218 -64,318 -43,99 -102,186 -176,260 -75,74 -161,133 -261,176 -99,43 -206,64 -321,64 -108,4 -212,-14 -311,-56 -99,-42 -186,-99 -262,-172 -75,-74 -136,-159 -181,-257 -45,-98 -67,-201 -67,-310l0 -622c0,-58 20,-110 62,-153 42,-44 94,-68 157,-70zm2421 4c226,0 417,78 575,236 38,43 56,94 52,152 -3,59 -25,107 -66,146 -40,38 -92,58 -155,61 -63,2 -115,-18 -156,-61 -70,-63 -153,-95 -250,-95 -52,0 -101,11 -147,32 -46,22 -87,50 -122,85 -35,35 -62,75 -82,120 -21,45 -31,92 -31,142 0,52 10,101 31,147 20,46 48,87 84,122 36,34 77,62 122,82 45,21 93,30 145,27 99,0 183,-30 250,-91 41,-45 93,-67 156,-67 63,0 115,22 155,67 21,18 36,40 48,64 11,25 17,51 18,78 1,27 -3,54 -12,80 -9,26 -22,49 -40,69 -79,79 -166,139 -260,179 -95,41 -200,61 -315,61 -113,0 -219,-22 -318,-66 -99,-44 -186,-103 -260,-177 -74,-75 -134,-162 -177,-261 -44,-99 -66,-204 -66,-314 0,-108 22,-212 66,-311 43,-99 103,-186 179,-261 75,-74 163,-134 262,-179 99,-45 204,-67 314,-67zm1055 -511c59,0 109,20 150,61 42,41 65,93 70,159l0 389c52,-34 112,-58 182,-71 70,-14 137,-21 200,-21 110,0 215,21 314,61 99,41 186,97 261,169 74,72 133,157 177,254 44,97 66,200 66,311l0 619c0,60 -21,112 -63,155 -41,43 -94,65 -157,68 -58,0 -108,-20 -149,-59 -40,-40 -65,-90 -74,-151l0 -608c0,-50 -10,-98 -29,-144 -19,-46 -45,-87 -79,-122 -34,-35 -73,-62 -118,-83 -46,-20 -95,-30 -149,-30 -102,0 -188,35 -259,105 -71,70 -112,155 -123,257l0 612c0,60 -21,112 -63,155 -42,43 -94,65 -157,68 -56,0 -104,-20 -144,-59 -39,-40 -65,-90 -76,-151l0 -1738c5,-56 27,-104 66,-145 40,-41 91,-61 154,-61zm2877 1762c45,45 68,98 68,160 0,62 -23,116 -68,161 -45,40 -98,62 -159,66 -61,3 -115,-19 -162,-66l-511 -507 0 344c0,59 -22,111 -67,158 -45,46 -98,69 -159,69 -59,0 -112,-22 -159,-66 -47,-44 -71,-97 -71,-161l0 -1707c0,-59 23,-111 68,-157 45,-46 99,-69 162,-69 63,0 117,22 160,65 44,44 66,98 66,161l0 849 511 -511c45,-45 98,-67 159,-66 61,1 115,23 162,66 45,45 68,99 68,161 0,62 -23,115 -68,160l-446 447 446 443zm1106 -1248c101,11 196,41 285,88 89,47 166,107 230,181 65,73 115,156 152,250 38,93 56,192 56,296l0 598c0,61 -22,113 -67,156 -46,43 -96,64 -153,64 -78,0 -122,-24 -157,-62 -39,-41 -66,-99 -66,-177l0 -573 0 -1 0 -5c0,-50 -10,-98 -30,-144 -20,-46 -48,-87 -83,-122 -35,-35 -75,-62 -122,-82 -46,-21 -94,-31 -143,-31 -50,0 -97,10 -142,31 -45,20 -85,47 -120,82 -35,35 -63,76 -83,122 -21,46 -31,94 -31,144 0,52 11,101 32,147 22,46 50,86 85,120 35,34 75,61 120,81 45,20 91,30 139,30 24,0 134,-3 191,50 162,152 52,389 -188,390 -169,0 -320,-46 -453,-137 -133,-91 -232,-209 -298,-353 -22,-52 -40,-105 -52,-159 -12,-54 -19,-111 -19,-169 0,-59 7,-115 19,-169 12,-54 30,-107 52,-159 66,-147 165,-265 298,-355 133,-90 284,-135 453,-135 18,0 34,0 49,0 15,0 30,1 46,3z"/>
  <path class="fil3" style="mask:url(#id4)" d="M4165 2448l-399 0c0,-364 -148,-694 -386,-932l273 -291"/>
  <circle class="fil0" cx="2448" cy="2448" r="172"/>
  <circle class="fil0" cx="7725" cy="2448" r="130"/>
  <circle class="fil0" cx="9541" cy="2448" r="130"/>
  <circle class="fil0" cx="11199" cy="2448" r="130"/>
  <circle class="fil0" cx="14484" cy="2448" r="130"/>
 </g>
</svg>
