<?xml version="1.0" encoding="UTF-8"?>
<!DOCTYPE svg PUBLIC "-//W3C//DTD SVG 1.1//EN" "http://www.w3.org/Graphics/SVG/1.1/DTD/svg11.dtd">
<!-- Creator: CorelDRAW X8 -->
<svg xmlns="http://www.w3.org/2000/svg" xml:space="preserve" width="68.2245mm" height="18.0553mm" version="1.1" style="shape-rendering:geometricPrecision; text-rendering:geometricPrecision; image-rendering:optimizeQuality; fill-rule:evenodd; clip-rule:evenodd"
viewBox="0 0 10234 2708"
 xmlns:xlink="http://www.w3.org/1999/xlink">
 <defs>
  <style type="text/css">
   <![CDATA[
    .fil3 {fill:#FEFEFE}
    .fil2 {fill:#E31E24}
    .fil0 {fill:#FEFEFE;fill-rule:nonzero}
    .fil1 {fill:#E31E24;fill-rule:nonzero}
   ]]>
  </style>
 </defs>
 <g id="Layer_x0020_1">
  <metadata id="CorelCorpID_0Corel-Layer"/>
  <polygon class="fil0" points="3627,2118 3834,2118 3834,2154 3752,2154 3752,2374 3709,2374 3709,2154 3627,2154 "/>
  <path id="1" class="fil0" d="M3876 2118l99 0c25,0 43,2 55,6 12,4 22,12 31,23 9,11 13,24 13,39 0,12 -3,23 -8,32 -5,9 -12,17 -23,23 12,4 22,12 30,23 8,11 12,24 12,39 -1,24 -10,42 -26,54 -15,11 -38,17 -68,17l-115 0 0 -256zm43 108l46 0c18,0 31,-1 38,-3 7,-2 13,-6 18,-11 6,-6 8,-13 8,-22 0,-13 -4,-23 -14,-28 -9,-5 -26,-8 -49,-8l-47 0 0 72zm0 113l57 0c24,0 41,-3 50,-9 10,-6 14,-15 15,-30 0,-8 -3,-15 -8,-22 -5,-7 -12,-12 -21,-14 -8,-1 -22,-2 -41,-2l-52 0 0 77z"/>
  <path id="2" class="fil0" d="M4116 2246c0,-47 13,-82 39,-105 22,-19 49,-28 81,-28 35,0 64,11 86,34 22,23 34,55 34,96 0,32 -5,58 -15,77 -10,19 -25,34 -43,44 -19,10 -40,16 -62,16 -36,0 -65,-12 -87,-35 -22,-23 -33,-56 -33,-99zm44 0c0,33 7,57 22,74 14,16 32,24 54,24 21,0 39,-8 54,-24 14,-17 21,-42 21,-75 0,-32 -7,-56 -21,-72 -15,-16 -33,-24 -54,-24 -22,0 -40,8 -54,24 -15,16 -22,41 -22,73z"/>
  <path id="3" class="fil0" d="M4406 2472l0 -354 40 0 0 34c9,-13 20,-23 31,-29 12,-7 26,-10 43,-10 22,0 41,5 58,17 16,11 29,27 38,47 8,20 12,43 12,67 0,26 -4,50 -14,71 -9,21 -23,37 -41,48 -17,11 -36,17 -56,17 -15,0 -28,-3 -39,-10 -11,-6 -21,-13 -28,-23l0 125 -44 0zm40 -224c0,33 7,57 20,72 13,16 29,24 48,24 19,0 36,-8 49,-24 14,-17 21,-42 21,-76 0,-32 -7,-57 -20,-73 -14,-16 -29,-24 -48,-24 -18,0 -35,8 -49,26 -14,17 -21,42 -21,75z"/>
  <path id="4" class="fil0" d="M4654 2118l43 0 0 49c0,20 1,36 4,45 2,9 8,17 18,24 9,7 21,11 35,11 17,0 38,-4 64,-13l0 -116 44 0 0 256 -44 0 0 -103c-26,8 -51,12 -75,12 -19,0 -36,-5 -51,-14 -15,-10 -25,-22 -30,-37 -6,-14 -8,-30 -8,-47l0 -67z"/>
  <path id="5" class="fil0" d="M5101 2291l45 6c-7,26 -20,47 -39,61 -19,14 -43,22 -73,22 -37,0 -67,-12 -89,-35 -22,-23 -33,-55 -33,-97 0,-43 11,-76 34,-100 22,-23 50,-35 86,-35 34,0 62,11 83,35 22,23 33,56 33,98 0,2 0,6 -1,11l-190 0c1,28 9,50 24,65 14,15 32,22 53,22 16,0 29,-4 41,-13 11,-8 20,-21 26,-40zm-142 -69l143 0c-2,-22 -8,-38 -17,-49 -13,-16 -31,-25 -53,-25 -20,0 -37,7 -50,20 -14,14 -21,31 -23,54z"/>
  <path id="6" class="fil0" d="M5368 2280l43 6c-5,30 -17,52 -36,69 -19,16 -43,25 -71,25 -35,0 -63,-12 -84,-35 -21,-23 -32,-55 -32,-98 0,-27 5,-52 14,-72 9,-21 23,-36 42,-47 18,-10 39,-15 61,-15 27,0 50,7 68,21 17,14 29,34 34,60l-42 6c-4,-17 -11,-30 -22,-39 -10,-8 -22,-13 -37,-13 -21,0 -39,8 -53,24 -14,15 -20,40 -20,74 0,34 6,59 19,75 14,15 31,23 52,23 17,0 31,-5 43,-16 11,-10 18,-26 21,-48z"/>
  <path id="7" class="fil0" d="M5447 2118l44 0 0 111c13,0 23,-3 29,-8 5,-6 13,-21 24,-47 9,-20 16,-33 21,-39 5,-7 11,-11 18,-13 7,-3 18,-4 33,-4l9 0 0 36 -12 0c-11,0 -19,1 -22,5 -3,3 -8,14 -15,31 -7,17 -13,29 -18,35 -6,7 -14,12 -26,18 19,5 37,22 55,52l48 79 -48 0 -47 -79c-9,-16 -17,-26 -24,-32 -7,-5 -16,-7 -25,-7l0 118 -44 0 0 -256z"/>
  <path id="8" class="fil0" d="M5841 2342c-16,14 -31,23 -46,29 -15,6 -31,9 -48,9 -28,0 -50,-7 -65,-21 -15,-14 -23,-31 -23,-52 0,-13 3,-24 9,-35 6,-10 13,-18 22,-25 10,-6 20,-11 32,-14 8,-2 21,-4 38,-6 35,-4 61,-9 78,-15 0,-6 0,-10 0,-11 0,-18 -4,-30 -12,-38 -11,-9 -28,-14 -50,-14 -20,0 -35,3 -45,11 -10,7 -17,19 -22,38l-42 -6c4,-19 10,-33 19,-44 9,-12 22,-20 38,-26 17,-6 36,-9 59,-9 21,0 39,2 53,7 14,6 24,12 30,20 7,8 11,18 14,29 1,8 2,21 2,40l0 58c0,40 1,65 3,76 1,11 5,21 10,31l-45 0c-5,-9 -7,-20 -9,-32zm-3 -96c-16,6 -40,12 -71,16 -18,3 -31,6 -38,9 -7,3 -13,8 -17,14 -4,6 -6,13 -6,20 0,12 4,21 13,29 9,8 22,12 38,12 17,0 32,-4 45,-11 13,-8 23,-18 29,-30 4,-10 7,-24 7,-43l0 -16z"/>
  <path id="9" class="fil0" d="M6150 2118l0 256 -43 0 0 -99 -25 0c-15,0 -27,1 -34,6 -8,4 -19,16 -33,37l-38 56 -54 0 47 -69c14,-21 29,-32 43,-35 -25,-4 -43,-13 -55,-27 -12,-14 -18,-31 -18,-50 0,-22 7,-40 23,-54 16,-14 39,-21 68,-21l119 0zm-43 36l-62 0c-26,0 -42,4 -50,12 -7,8 -11,18 -11,29 0,15 5,26 16,33 11,7 31,11 59,11l48 0 0 -85z"/>
  <path id="10" class="fil0" d="M6353 2472l0 -354 39 0 0 34c9,-13 20,-23 32,-29 11,-7 25,-10 42,-10 22,0 41,5 58,17 17,11 29,27 38,47 8,20 12,43 12,67 0,26 -4,50 -14,71 -9,21 -23,37 -41,48 -17,11 -36,17 -56,17 -14,0 -27,-3 -39,-10 -11,-6 -21,-13 -28,-23l0 125 -43 0zm39 -224c0,33 7,57 20,72 13,16 29,24 48,24 19,0 36,-8 50,-24 13,-17 20,-42 20,-76 0,-32 -7,-57 -20,-73 -13,-16 -29,-24 -48,-24 -18,0 -35,8 -49,26 -14,17 -21,42 -21,75z"/>
  <path id="11" class="fil0" d="M6794 2342c-16,14 -32,23 -47,29 -14,6 -30,9 -47,9 -29,0 -50,-7 -65,-21 -15,-14 -23,-31 -23,-52 0,-13 3,-24 9,-35 5,-10 13,-18 22,-25 9,-6 20,-11 31,-14 9,-2 22,-4 39,-6 35,-4 61,-9 77,-15 0,-6 1,-10 1,-11 0,-18 -5,-30 -13,-38 -11,-9 -27,-14 -49,-14 -21,0 -36,3 -46,11 -9,7 -17,19 -21,38l-43 -6c4,-19 11,-33 19,-44 9,-12 22,-20 39,-26 17,-6 36,-9 58,-9 22,0 40,2 54,7 13,6 23,12 30,20 6,8 11,18 13,29 2,8 2,21 2,40l0 58c0,40 1,65 3,76 2,11 5,21 11,31l-46 0c-4,-9 -7,-20 -8,-32zm-3 -96c-16,6 -40,12 -71,16 -18,3 -31,6 -38,9 -8,3 -14,8 -18,14 -4,6 -6,13 -6,20 0,12 5,21 13,29 9,8 22,12 39,12 17,0 32,-4 45,-11 13,-8 22,-18 28,-30 5,-10 7,-24 7,-43l1 -16z"/>
  <path id="12" class="fil0" d="M7087 2013l39 0c-2,17 -6,29 -11,36 -6,7 -14,11 -23,13 -9,2 -27,3 -54,3 -36,0 -60,3 -73,10 -13,7 -22,18 -28,33 -6,16 -9,35 -10,59 11,-16 24,-29 39,-37 14,-8 31,-12 49,-12 34,0 61,12 83,35 22,23 33,54 33,93 0,30 -5,55 -16,74 -11,19 -24,34 -40,44 -15,10 -36,16 -62,16 -30,0 -54,-7 -71,-21 -16,-14 -29,-32 -38,-53 -9,-22 -14,-60 -14,-114 0,-67 12,-112 34,-136 23,-23 58,-35 106,-35 29,0 46,0 50,-1 4,-1 6,-4 7,-7zm-1 232c0,-27 -6,-48 -19,-65 -12,-17 -30,-26 -53,-26 -24,0 -43,9 -55,27 -13,18 -20,42 -20,72 0,30 7,52 22,68 14,16 32,24 53,24 21,0 39,-10 52,-28 13,-18 20,-42 20,-72z"/>
  <path id="13" class="fil0" d="M7167 2246c0,-47 13,-82 40,-105 22,-19 49,-28 80,-28 35,0 64,11 86,34 23,23 34,55 34,96 0,32 -5,58 -15,77 -10,19 -24,34 -43,44 -19,10 -39,16 -62,16 -36,0 -64,-12 -87,-35 -22,-23 -33,-56 -33,-99zm45 0c0,33 7,57 21,74 15,16 32,24 54,24 22,0 40,-8 54,-24 14,-17 22,-42 22,-75 0,-32 -8,-56 -22,-72 -14,-16 -32,-24 -54,-24 -22,0 -39,8 -54,24 -14,16 -21,41 -21,73z"/>
  <polygon id="14" class="fil0" points="7424,2118 7631,2118 7631,2154 7550,2154 7550,2374 7506,2374 7506,2154 7424,2154 "/>
  <path id="15" class="fil0" d="M7835 2342c-17,14 -32,23 -47,29 -15,6 -31,9 -48,9 -28,0 -50,-7 -65,-21 -15,-14 -22,-31 -22,-52 0,-13 2,-24 8,-35 6,-10 13,-18 23,-25 9,-6 19,-11 31,-14 8,-2 21,-4 38,-6 35,-4 61,-9 78,-15 0,-6 0,-10 0,-11 0,-18 -4,-30 -12,-38 -11,-9 -28,-14 -50,-14 -20,0 -35,3 -45,11 -10,7 -17,19 -22,38l-42 -6c4,-19 10,-33 19,-44 9,-12 22,-20 38,-26 17,-6 37,-9 59,-9 22,0 39,2 53,7 14,6 24,12 30,20 7,8 11,18 14,29 1,8 2,21 2,40l0 58c0,40 1,65 3,76 1,11 5,21 10,31l-45 0c-4,-9 -7,-20 -8,-32zm-4 -96c-16,6 -39,12 -71,16 -18,3 -31,6 -38,9 -7,3 -13,8 -17,14 -4,6 -6,13 -6,20 0,12 4,21 13,29 9,8 22,12 39,12 16,0 31,-4 44,-11 13,-8 23,-18 29,-30 5,-10 7,-24 7,-43l0 -16z"/>
  <path id="16" class="fil0" d="M8246 2280l42 6c-4,30 -16,52 -35,69 -20,16 -43,25 -71,25 -35,0 -63,-12 -84,-35 -22,-23 -32,-55 -32,-98 0,-27 4,-52 14,-72 9,-21 23,-36 41,-47 19,-10 39,-15 61,-15 28,0 51,7 68,21 18,14 29,34 34,60l-42 6c-4,-17 -11,-30 -21,-39 -10,-8 -23,-13 -37,-13 -22,0 -40,8 -53,24 -14,15 -21,40 -21,74 0,34 7,59 20,75 13,15 30,23 51,23 18,0 32,-5 43,-16 12,-10 19,-26 22,-48z"/>
  <path id="17" class="fil0" d="M8314 2246c0,-47 14,-82 40,-105 22,-19 49,-28 80,-28 36,0 64,11 87,34 22,23 33,55 33,96 0,32 -5,58 -15,77 -10,19 -24,34 -43,44 -19,10 -39,16 -62,16 -35,0 -64,-12 -86,-35 -23,-23 -34,-56 -34,-99zm45 0c0,33 7,57 21,74 15,16 33,24 54,24 22,0 40,-8 54,-24 15,-17 22,-42 22,-75 0,-32 -8,-56 -22,-72 -14,-16 -32,-24 -54,-24 -21,0 -39,8 -54,24 -14,16 -21,41 -21,73z"/>
  <path id="18" class="fil0" d="M8799 2258l0 -34c18,0 30,-1 37,-2 7,-1 13,-5 19,-11 6,-7 9,-15 9,-24 0,-12 -4,-21 -12,-28 -8,-7 -18,-11 -30,-11 -25,0 -42,15 -51,43l-42 -7c13,-47 44,-71 93,-71 27,0 49,7 64,22 16,15 24,33 24,53 0,21 -10,38 -31,50 13,7 23,16 29,26 7,11 10,24 10,38 0,23 -8,42 -25,56 -17,14 -40,22 -70,22 -59,0 -92,-26 -102,-78l41 -9c4,17 11,29 23,38 11,9 24,14 39,14 14,0 26,-5 36,-13 10,-8 15,-19 15,-31 0,-10 -3,-19 -9,-26 -7,-8 -13,-12 -20,-14 -7,-2 -19,-3 -37,-3 -2,0 -5,0 -10,0z"/>
  <path id="19" class="fil0" d="M8968 2118l100 0c24,0 43,2 55,6 12,4 22,12 30,23 9,11 13,24 13,39 0,12 -2,23 -7,32 -5,9 -13,17 -23,23 12,4 22,12 30,23 8,11 12,24 12,39 -2,24 -11,42 -26,54 -16,11 -39,17 -69,17l-115 0 0 -256zm43 108l47 0c18,0 30,-1 37,-3 7,-2 13,-6 19,-11 5,-6 8,-13 8,-22 0,-13 -5,-23 -14,-28 -10,-5 -26,-8 -49,-8l-48 0 0 72zm0 113l57 0c25,0 42,-3 51,-9 9,-6 14,-15 14,-30 0,-8 -2,-15 -8,-22 -5,-7 -12,-12 -20,-14 -9,-1 -22,-2 -41,-2l-53 0 0 77z"/>
  <path id="20" class="fil0" d="M9217 2473l-5 -41c10,3 18,4 25,4 10,0 18,-1 23,-5 6,-3 11,-7 15,-13 2,-4 7,-15 13,-32 1,-3 2,-6 4,-11l-97 -257 46 0 53 148c7,19 14,38 19,59 5,-19 11,-39 18,-58l54 -149 44 0 -97 261c-10,28 -19,47 -24,57 -8,15 -17,25 -27,32 -10,6 -22,10 -36,10 -8,0 -17,-2 -28,-5z"/>
  <path id="21" class="fil0" d="M9465 2118l44 0 0 111c14,0 23,-3 29,-8 5,-6 13,-21 24,-47 9,-20 16,-33 21,-39 5,-7 11,-11 18,-13 7,-3 18,-4 34,-4l8 0 0 36 -12 0c-11,0 -18,1 -22,5 -3,3 -8,14 -15,31 -7,17 -13,29 -18,35 -6,7 -14,12 -26,18 19,5 38,22 56,52l47 79 -47 0 -47 -79c-10,-16 -18,-26 -25,-32 -7,-5 -15,-7 -25,-7l0 118 -44 0 0 -256z"/>
  <path id="22" class="fil0" d="M9671 2246c0,-47 13,-82 39,-105 22,-19 49,-28 81,-28 35,0 64,11 86,34 22,23 33,55 33,96 0,32 -4,58 -14,77 -10,19 -25,34 -43,44 -19,10 -40,16 -62,16 -36,0 -65,-12 -87,-35 -22,-23 -33,-56 -33,-99zm44 0c0,33 7,57 22,74 14,16 32,24 54,24 21,0 39,-8 54,-24 14,-17 21,-42 21,-75 0,-32 -7,-56 -22,-72 -14,-16 -32,-24 -53,-24 -22,0 -40,8 -54,24 -15,16 -22,41 -22,73z"/>
  <polygon id="23" class="fil0" points="9963,2118 10030,2118 10097,2323 10172,2118 10234,2118 10234,2374 10191,2374 10191,2168 10115,2374 10077,2374 10005,2158 10005,2374 9963,2374 "/>
  <g id="_2651950657888">
   <path class="fil1" d="M1708 1967c53,-30 120,-12 151,41 30,52 12,120 -41,150 -71,41 -146,72 -223,93 -79,21 -160,32 -241,32 -256,0 -488,-104 -656,-272 -168,-168 -272,-401 -272,-657 0,-256 104,-488 272,-656 168,-168 400,-272 656,-272 81,0 162,10 240,31 78,21 153,52 224,93 53,31 71,98 41,151 -31,52 -98,71 -151,40 -53,-30 -110,-54 -171,-70 -59,-16 -120,-24 -183,-24 -195,0 -372,79 -500,207 -128,128 -207,305 -207,500 0,195 79,372 207,500 128,128 305,208 500,208 63,0 124,-9 184,-24 60,-17 117,-40 170,-71z"/>
   <path class="fil1" d="M2156 2155c43,-42 113,-42 156,1 43,43 43,113 -1,156 -126,126 -276,226 -439,293 -163,68 -339,103 -518,103 -747,0 -1354,-606 -1354,-1354 0,-747 607,-1354 1354,-1354 179,0 355,36 518,103 163,68 313,167 439,294 44,42 44,112 1,155 -43,44 -113,44 -156,1 -107,-106 -232,-189 -368,-246 -136,-56 -283,-86 -434,-86 -625,0 -1133,508 -1133,1133 0,626 508,1133 1133,1133 151,0 298,-30 434,-86 136,-56 261,-139 368,-246z"/>
   <path class="fil1" d="M8592 1707c0,19 -6,35 -20,49 -13,13 -30,20 -49,20 -19,0 -35,-7 -48,-20 -13,-14 -19,-30 -19,-49 0,-18 6,-34 19,-48 13,-13 29,-20 48,-20 19,0 36,7 49,20 14,14 20,30 20,48z"/>
   <path class="fil1" d="M8884 1289c67,0 124,24 170,71 12,13 17,28 16,45 -1,17 -8,32 -20,43 -12,12 -27,18 -46,18 -19,1 -34,-5 -46,-18 -21,-19 -46,-28 -74,-28 -16,0 -30,3 -44,10 -14,6 -26,14 -36,25 -11,10 -19,22 -25,35 -6,14 -9,28 -9,43 0,15 3,30 9,43 6,14 15,26 25,36 11,11 23,19 36,25 14,6 28,9 44,8 29,0 54,-9 74,-27 12,-13 27,-20 46,-20 19,0 34,7 46,20 6,5 11,12 14,19 4,7 6,15 6,23 0,8 -1,16 -4,24 -2,7 -6,14 -12,20 -23,24 -49,42 -77,54 -28,12 -59,18 -93,18 -34,0 -65,-7 -95,-20 -29,-13 -55,-31 -77,-53 -22,-22 -40,-48 -53,-77 -13,-29 -19,-61 -19,-93 0,-33 6,-63 19,-93 13,-29 31,-55 53,-77 23,-22 49,-40 78,-53 30,-14 61,-21 94,-21z"/>
   <path class="fil1" d="M9358 1299c33,0 64,6 93,19 30,12 55,30 78,52 22,22 39,48 52,77 13,30 20,61 20,96 0,33 -7,64 -19,94 -13,29 -30,54 -52,76 -22,22 -47,40 -77,53 -29,12 -61,19 -95,19 -34,0 -65,-6 -95,-18 -29,-12 -55,-29 -77,-51 -22,-22 -40,-47 -52,-77 -13,-29 -19,-62 -19,-96 0,-34 6,-65 18,-94 13,-29 30,-55 51,-77 22,-21 48,-39 78,-52 30,-13 62,-20 96,-21zm0 131c-16,0 -30,3 -43,9 -14,5 -26,13 -36,23 -10,10 -19,22 -25,36 -6,14 -9,29 -9,45 0,15 3,30 9,43 6,14 15,26 25,36 10,11 22,19 36,25 13,6 27,9 43,9 15,0 30,-3 43,-9 14,-6 26,-14 36,-25 10,-10 18,-22 24,-36 6,-13 9,-28 9,-43 -1,-31 -12,-57 -33,-79 -21,-21 -47,-33 -79,-34z"/>
   <path class="fil1" d="M9831 1289c20,0 40,4 59,10 19,6 36,16 52,30 32,-26 70,-40 113,-40 23,0 46,5 68,14 21,9 40,21 57,37 16,15 29,34 39,55 10,21 15,44 15,68l0 252c0,16 -7,31 -20,43 -14,12 -29,18 -47,18 -17,0 -32,-7 -45,-20 -13,-13 -20,-28 -20,-46l0 -244c0,-12 -4,-23 -14,-32 -9,-9 -20,-13 -33,-13 -12,0 -22,4 -32,12 -10,7 -14,19 -14,33l0 244c0,18 -7,34 -20,47 -13,12 -29,19 -47,19 -16,0 -31,-6 -45,-18 -13,-12 -20,-26 -20,-43l0 -249c-1,-13 -6,-24 -15,-32 -9,-9 -20,-13 -31,-13 -13,0 -24,4 -33,13 -9,9 -14,20 -14,33l0 249c-2,16 -9,30 -21,42 -12,12 -27,18 -45,18 -9,0 -18,-2 -26,-5 -8,-4 -15,-8 -21,-14 -6,-6 -11,-13 -14,-22 -4,-8 -6,-16 -5,-25l0 -247c0,-23 5,-45 14,-67 9,-21 22,-39 38,-55 16,-16 35,-28 57,-37 22,-10 45,-15 70,-15z"/>
   <path class="fil1" d="M7983 1337c0,19 -7,35 -20,49 -14,13 -30,20 -50,20 -18,0 -34,-7 -47,-20 -13,-14 -20,-30 -20,-49 0,-18 7,-34 20,-48 13,-13 29,-20 47,-20 20,0 36,7 50,20 13,14 20,30 20,48z"/>
   <path class="fil1" d="M6185 1337c0,19 -7,35 -20,49 -13,13 -30,20 -49,20 -19,0 -35,-7 -48,-20 -13,-14 -20,-30 -20,-49 0,-18 7,-34 20,-48 13,-13 29,-20 48,-20 19,0 36,7 49,20 13,14 20,30 20,48z"/>
   <path class="fil1" d="M5291 1337c0,19 -7,35 -20,49 -13,13 -30,20 -49,20 -19,0 -35,-7 -48,-20 -13,-14 -19,-30 -19,-49 0,-18 6,-34 19,-48 13,-13 29,-20 48,-20 19,0 36,7 49,20 13,14 20,30 20,48z"/>
   <path class="fil1" d="M4284 1337c0,19 -7,35 -20,49 -13,13 -30,20 -49,20 -19,0 -35,-7 -48,-20 -13,-14 -20,-30 -20,-49 0,-18 7,-34 20,-48 13,-13 29,-20 48,-20 19,0 36,7 49,20 13,14 20,30 20,48z"/>
   <path class="fil2" d="M1354 1258c53,0 96,43 96,96 0,53 -43,96 -96,96 -53,0 -96,-43 -96,-96 0,-53 43,-96 96,-96z"/>
  </g>
  <g id="_2651950662656">
   <path class="fil0" d="M7913 1790c-127,0 -234,-43 -321,-130 -86,-88 -130,-195 -130,-322 0,-127 44,-234 130,-321 87,-87 194,-130 321,-130 127,0 235,43 322,130 87,87 131,194 131,321l0 330c0,36 -12,64 -34,86 -22,22 -51,33 -87,33 -35,0 -63,-11 -85,-33 -22,-22 -33,-50 -33,-86l0 -330c0,-59 -21,-109 -63,-150 -42,-42 -92,-62 -151,-62 -59,0 -109,20 -150,62 -41,41 -62,91 -62,150 0,59 21,109 62,151 41,42 91,63 150,63 35,0 64,11 87,32 22,22 33,51 33,86 0,35 -11,64 -33,87 -23,22 -52,33 -87,33zm-527 -214c25,24 37,54 37,88 0,34 -12,64 -37,88 -25,23 -54,35 -88,37 -33,2 -63,-11 -89,-37l-281 -279 0 190c0,32 -12,61 -37,87 -25,25 -54,38 -88,38 -32,0 -61,-12 -87,-37 -26,-24 -39,-53 -39,-88l0 -940c0,-32 12,-61 37,-86 25,-26 55,-38 89,-38 35,0 65,12 89,36 24,24 36,54 36,88l0 467 281 -281c25,-24 54,-36 87,-36 34,1 64,13 90,36 25,25 37,55 37,89 0,34 -12,63 -37,88l-246 246 246 244zm-1600 -970c33,0 60,11 83,34 23,22 36,51 38,87l0 214c29,-19 62,-32 101,-39 38,-7 75,-11 110,-11 60,0 118,11 173,33 54,23 102,54 143,93 41,40 74,87 98,140 24,53 36,110 36,171l0 341c0,33 -11,62 -34,85 -23,24 -52,36 -87,38 -32,0 -60,-11 -82,-33 -22,-22 -36,-49 -41,-83l0 -335c0,-27 -5,-53 -16,-79 -10,-25 -25,-48 -43,-67 -19,-19 -41,-34 -65,-46 -25,-11 -53,-16 -82,-16 -56,0 -104,19 -143,57 -39,39 -61,86 -68,142l0 337c0,33 -11,62 -34,85 -23,24 -52,36 -87,38 -31,0 -57,-11 -79,-33 -21,-22 -35,-49 -42,-83l0 -956c3,-31 15,-58 37,-80 21,-23 50,-34 84,-34zm-563 283c124,0 229,43 316,130 21,24 30,51 29,84 -2,32 -14,58 -37,79 -22,22 -51,33 -85,34 -35,1 -63,-10 -86,-34 -38,-34 -84,-52 -137,-52 -29,0 -56,6 -81,18 -25,12 -48,27 -67,47 -19,19 -34,41 -45,66 -11,24 -17,50 -17,78 0,28 6,55 17,80 11,26 26,48 46,67 20,19 42,35 67,46 25,11 51,16 80,15 54,0 100,-17 137,-51 23,-24 51,-37 86,-37 34,0 63,13 85,37 11,10 20,22 26,36 6,13 10,28 11,42 0,15 -2,30 -7,44 -5,14 -12,27 -22,38 -44,44 -91,76 -143,99 -52,22 -110,33 -173,33 -62,0 -120,-12 -175,-36 -54,-24 -102,-57 -143,-98 -41,-40 -73,-88 -97,-143 -25,-54 -37,-112 -37,-172 0,-60 12,-117 37,-171 24,-55 57,-103 98,-143 42,-41 90,-74 144,-99 55,-25 112,-37 173,-37zm-1338 -4c32,0 60,12 85,37 25,24 37,53 37,88l0 327c0,29 6,56 17,81 11,26 26,48 45,66 18,19 40,34 66,45 25,11 52,17 81,17 27,0 53,-5 78,-15 25,-10 47,-24 66,-41 19,-17 34,-38 46,-63 11,-25 16,-52 16,-80l0 -339c0,-25 7,-46 19,-63 2,-4 5,-8 8,-11 3,-4 7,-8 11,-12 22,-24 50,-37 83,-37 34,0 63,13 88,37 23,24 36,51 37,80l0 335c0,62 -12,121 -35,175 -24,55 -56,103 -97,144 -41,41 -89,73 -143,96 -55,24 -114,36 -177,36 -60,2 -117,-8 -171,-31 -55,-23 -103,-55 -145,-95 -41,-40 -74,-87 -99,-141 -25,-54 -37,-111 -37,-171l0 -342c0,-32 11,-60 34,-85 23,-24 52,-37 87,-38zm-291 8c33,13 55,35 69,66 14,30 14,61 0,94l-251 657c-6,13 -20,30 -40,49 -21,19 -45,29 -74,29 -24,0 -48,-6 -70,-18 -23,-12 -39,-32 -49,-60l-253 -657c-13,-33 -13,-64 0,-94 14,-31 37,-53 69,-66 32,-13 64,-12 95,2 31,13 53,36 67,68l138 358 137 -358c14,-32 37,-55 68,-68 32,-14 63,-15 94,-2zm-893 -6c32,0 60,12 84,35 23,27 35,54 35,84 0,34 -12,62 -35,86 -6,6 -13,12 -19,18 -6,7 -12,13 -18,19 -70,70 -139,139 -208,208 -69,68 -139,138 -209,207l370 0c31,1 59,14 84,37 23,26 35,55 35,88 0,29 -12,57 -35,83 -26,24 -54,36 -84,36l-6 0 -606 0 -47 0 -5 0c-33,0 -60,-12 -84,-36 -25,-24 -37,-52 -35,-83 -3,-34 8,-62 33,-84l454 -456 -363 0 -5 0c-34,-2 -62,-15 -84,-37 -26,-24 -38,-52 -35,-86 -2,-31 10,-59 35,-84 22,-23 50,-35 84,-35l664 0z"/>
   <path class="fil3" d="M1354 1102c140,0 252,113 252,252 0,140 -112,252 -252,252 -139,0 -252,-112 -252,-252 0,-139 113,-252 252,-252zm0 -242c273,0 495,221 495,494 0,273 -222,495 -495,495 -273,0 -494,-222 -494,-495 0,-273 221,-494 494,-494z"/>
  </g>
 </g>
</svg>
