<?xml version="1.0" encoding="UTF-8"?>
<!DOCTYPE svg PUBLIC "-//W3C//DTD SVG 1.1//EN" "http://www.w3.org/Graphics/SVG/1.1/DTD/svg11.dtd">
<!-- Creator: CorelDRAW X8 -->
<svg xmlns="http://www.w3.org/2000/svg" xml:space="preserve" width="48.9552mm" height="48.879mm" version="1.1" style="shape-rendering:geometricPrecision; text-rendering:geometricPrecision; image-rendering:optimizeQuality; fill-rule:evenodd; clip-rule:evenodd"
viewBox="0 0 779 777"
 xmlns:xlink="http://www.w3.org/1999/xlink">
 <defs>
  <style type="text/css">
   <![CDATA[
    .fil1 {fill:none}
    .fil2 {fill:#E31E24}
    .fil3 {fill:#1C1C1C}
    .fil0 {fill:#1C1C1C;fill-rule:nonzero}
   ]]>
  </style>
   <mask id="id0">
  <linearGradient id="id1" gradientUnits="userSpaceOnUse" x1="453.591" y1="231.963" x2="708.001" y2="271.443">
   <stop offset="0" style="stop-opacity:1; stop-color:white"/>
   <stop offset="1" style="stop-opacity:0; stop-color:white"/>
  </linearGradient>
    <rect style="fill:url(#id1)" x="537" y="194" width="43.3626" height="74.2578"/>
   </mask>
   <mask id="id2">
  <linearGradient id="id3" gradientUnits="userSpaceOnUse" x1="-1189.38" y1="120.977" x2="-1317.1" y2="53.3809">
   <stop offset="0" style="stop-opacity:1; stop-color:white"/>
   <stop offset="1" style="stop-opacity:0; stop-color:white"/>
  </linearGradient>
    <rect style="fill:url(#id3)" x="116" y="116" width="432" height="545"/>
   </mask>
   <mask id="id4">
  <linearGradient id="id5" gradientUnits="userSpaceOnUse" x1="-2991.86" y1="31.0963" x2="-4159.99" y2="-544.82">
   <stop offset="0" style="stop-opacity:1; stop-color:white"/>
   <stop offset="1" style="stop-opacity:0; stop-color:white"/>
  </linearGradient>
    <rect style="fill:url(#id5)" width="683" height="777"/>
   </mask>
   <mask id="id6">
  <linearGradient id="id7" gradientUnits="userSpaceOnUse" x1="597.108" y1="1975.58" x2="659.88" y2="2105.74">
   <stop offset="0" style="stop-opacity:1; stop-color:white"/>
   <stop offset="1" style="stop-opacity:0; stop-color:white"/>
  </linearGradient>
    <rect style="fill:url(#id7)" x="568" y="237" width="93.5538" height="302.19"/>
   </mask>
   <mask id="id8">
  <linearGradient id="id9" gradientUnits="userSpaceOnUse" x1="-662.074" y1="3620.07" x2="-612.482" y2="4921.52">
   <stop offset="0" style="stop-opacity:1; stop-color:white"/>
   <stop offset="1" style="stop-opacity:0; stop-color:white"/>
  </linearGradient>
    <rect style="fill:url(#id9)" x="685" y="214" width="93.6746" height="351.052"/>
   </mask>
 </defs>
 <g id="Слой_x0020_1">
  <metadata id="CorelCorpID_0Corel-Layer"/>
  <path class="fil0" d="M389 258c17,0 34,3 50,10 15,7 29,16 41,28 12,12 21,26 28,41 7,16 11,33 11,51 0,18 -4,35 -11,51 -6,15 -16,29 -27,41 -12,12 -25,21 -41,28 -16,6 -33,10 -51,10 -18,0 -35,-3 -51,-10 -15,-6 -29,-15 -41,-27 -12,-12 -21,-25 -28,-41 -7,-16 -10,-33 -10,-52 0,-17 3,-34 10,-50 6,-15 16,-29 27,-41 12,-11 26,-20 42,-27 15,-7 33,-11 51,-12zm0 70c-8,0 -16,2 -23,5 -7,3 -14,7 -19,13 -6,5 -10,11 -14,19 -3,7 -4,15 -4,23 0,9 1,16 4,24 4,7 8,14 14,19 5,6 12,10 19,13 7,4 15,5 23,5 8,0 16,-1 23,-5 7,-3 14,-7 19,-13 6,-5 10,-12 13,-19 3,-8 5,-15 5,-24 -1,-16 -7,-30 -18,-41 -11,-12 -25,-18 -42,-19z"/>
  <path class="fil1" style="mask:url(#id0)" d="M560 269c-7,-10 -15,-20 -23,-28l43 -47"/>
  <circle class="fil2" cx="389" cy="389" r="27"/>
  <path class="fil2" style="mask:url(#id2)" d="M528 154c-41,-24 -88,-38 -139,-38 -76,0 -144,31 -193,80 -49,49 -80,117 -80,193 0,75 31,143 80,192 49,50 117,80 193,80 51,0 98,-14 139,-38 22,-13 23,-35 16,-47 -7,-11 -18,-16 -37,-11 -7,1 -14,5 -24,10 -28,15 -60,23 -94,23 -58,0 -110,-24 -148,-61 -38,-38 -62,-91 -62,-148 0,-58 24,-110 62,-148 38,-38 90,-62 148,-62 34,0 66,9 94,23 10,5 17,9 24,11 19,4 30,-1 37,-12 7,-12 6,-34 -16,-47z"/>
  <path class="fil2" style="mask:url(#id4)" d="M663 663c-1,1 -2,3 -3,4 -70,68 -166,110 -271,110 -108,0 -205,-43 -275,-114 -70,-70 -114,-167 -114,-274 0,-108 44,-205 114,-275 70,-70 167,-114 275,-114 105,0 201,42 271,111 1,1 2,2 3,3 5,4 8,8 11,12 13,17 10,36 -1,45 -12,9 -31,9 -45,-2 -3,-3 -6,-7 -9,-10 -59,-59 -141,-96 -230,-96 -90,0 -171,37 -230,96 -59,59 -96,140 -96,230 0,89 37,171 96,230 59,58 140,95 230,95 89,0 171,-37 230,-95 3,-4 6,-7 9,-10 14,-12 33,-12 45,-3 11,9 14,28 1,45 -3,4 -6,8 -11,12z"/>
  <path class="fil3" style="mask:url(#id6)" d="M628 258c22,39 34,85 33,132 0,46 -12,90 -32,128 -12,22 -34,25 -47,18 -11,-7 -16,-18 -13,-36 2,-7 6,-15 10,-25 5,-11 9,-22 12,-34l0 0c4,-15 6,-29 7,-45 0,-2 0,-5 0,-7 0,-3 0,-6 0,-9 -1,-5 -1,-10 -1,-14l0 0c-3,-23 -9,-45 -18,-65 -5,-10 -9,-17 -10,-24 -4,-19 2,-30 13,-36 12,-8 34,-5 46,17z"/>
  <path class="fil3" style="mask:url(#id8)" d="M769 472c17,-74 11,-150 -15,-219 0,-2 -1,-3 -1,-4 -2,-6 -5,-11 -7,-15 -11,-19 -29,-24 -42,-17 -13,6 -21,24 -16,42 2,4 4,8 6,12 4,12 8,24 11,37l0 0c17,68 12,137 -13,199 -2,5 -4,9 -5,13 -6,17 2,35 15,42 13,7 31,2 42,-17 2,-4 5,-9 7,-14 0,-2 1,-3 1,-4 7,-18 13,-36 17,-55l0 0z"/>
 </g>
</svg>
