<?xml version="1.0" encoding="UTF-8"?>
<!DOCTYPE svg PUBLIC "-//W3C//DTD SVG 1.1//EN" "http://www.w3.org/Graphics/SVG/1.1/DTD/svg11.dtd">
<!-- Creator: CorelDRAW X8 -->
<svg xmlns="http://www.w3.org/2000/svg" xml:space="preserve" width="48.9552mm" height="48.879mm" version="1.1" style="shape-rendering:geometricPrecision; text-rendering:geometricPrecision; image-rendering:optimizeQuality; fill-rule:evenodd; clip-rule:evenodd"
viewBox="0 0 1335 1333"
 xmlns:xlink="http://www.w3.org/1999/xlink">
 <defs>
  <style type="text/css">
   <![CDATA[
    .fil1 {fill:none}
    .fil3 {fill:#FEFEFE}
    .fil2 {fill:#EA3249}
    .fil0 {fill:white;fill-rule:nonzero}
   ]]>
  </style>
   <mask id="id0">
  <linearGradient id="id1" gradientUnits="userSpaceOnUse" x1="777.652" y1="397.684" x2="1213.82" y2="465.37">
   <stop offset="0" style="stop-opacity:1; stop-color:white"/>
   <stop offset="1" style="stop-opacity:0; stop-color:white"/>
  </linearGradient>
    <rect style="fill:url(#id1)" x="920" y="333" width="74.3423" height="127.31"/>
   </mask>
   <mask id="id2">
  <linearGradient id="id3" gradientUnits="userSpaceOnUse" x1="-2039.11" y1="207.408" x2="-2258.08" y2="91.518">
   <stop offset="0" style="stop-opacity:1; stop-color:white"/>
   <stop offset="1" style="stop-opacity:0; stop-color:white"/>
  </linearGradient>
    <rect style="fill:url(#id3)" x="199" y="199" width="740" height="935"/>
   </mask>
   <mask id="id4">
  <linearGradient id="id5" gradientUnits="userSpaceOnUse" x1="-5129.34" y1="53.3125" x2="-7132.03" y2="-934.057">
   <stop offset="0" style="stop-opacity:1; stop-color:white"/>
   <stop offset="1" style="stop-opacity:0; stop-color:white"/>
  </linearGradient>
    <rect style="fill:url(#id5)" width="1170" height="1333"/>
   </mask>
   <mask id="id6">
  <linearGradient id="id7" gradientUnits="userSpaceOnUse" x1="93.7713" y1="-2017.36" x2="-31.2458" y2="-2231.25">
   <stop offset="0" style="stop-opacity:1; stop-color:white"/>
   <stop offset="1" style="stop-opacity:0; stop-color:white"/>
  </linearGradient>
    <rect style="fill:url(#id7)" x="974" y="627" width="159" height="298"/>
   </mask>
   <mask id="id8">
  <linearGradient id="id9" gradientUnits="userSpaceOnUse" x1="1023.7" y1="3386.99" x2="1131.32" y2="3610.15">
   <stop offset="0" style="stop-opacity:1; stop-color:white"/>
   <stop offset="1" style="stop-opacity:0; stop-color:white"/>
  </linearGradient>
    <rect style="fill:url(#id9)" x="973" y="406" width="160" height="353"/>
   </mask>
   <mask id="id10">
  <linearGradient id="id11" gradientUnits="userSpaceOnUse" x1="-1135.08" y1="6206.37" x2="-1050.06" y2="8437.61">
   <stop offset="0" style="stop-opacity:1; stop-color:white"/>
   <stop offset="1" style="stop-opacity:0; stop-color:white"/>
  </linearGradient>
    <rect style="fill:url(#id11)" x="1174" y="367" width="161" height="602"/>
   </mask>
 </defs>
 <g id="Слой_x0020_1">
  <metadata id="CorelCorpID_0Corel-Layer"/>
  <path class="fil0" d="M667 442c30,0 58,6 85,18 27,12 51,27 71,48 20,20 36,44 48,71 12,27 18,56 18,87 0,31 -6,59 -17,86 -12,27 -28,50 -48,70 -20,21 -43,37 -70,48 -27,12 -56,18 -87,18 -31,0 -60,-6 -87,-17 -27,-11 -51,-26 -71,-46 -20,-20 -36,-44 -48,-71 -11,-27 -17,-56 -17,-88 0,-31 5,-59 17,-86 11,-27 27,-50 47,-70 20,-20 43,-36 71,-48 27,-12 56,-18 88,-20zm0 121c-15,0 -28,3 -40,8 -12,5 -23,12 -33,21 -9,10 -17,20 -22,33 -6,13 -9,26 -9,41 0,14 3,27 9,40 5,13 13,24 22,33 10,10 21,17 33,23 12,5 25,8 40,8 14,0 27,-3 40,-8 12,-6 23,-13 32,-23 9,-9 17,-20 22,-33 6,-13 9,-26 9,-40 -2,-28 -12,-52 -31,-72 -19,-19 -43,-30 -72,-31z"/>
  <path class="fil1" style="mask:url(#id0)" d="M960 461c-12,-18 -25,-34 -40,-48l74 -80"/>
  <circle class="fil2" cx="666" cy="666" r="47"/>
  <path class="fil2" style="mask:url(#id2)" d="M905 265c-70,-42 -151,-66 -239,-66 -129,0 -246,52 -330,137 -85,84 -137,201 -137,330 0,129 52,246 137,331 84,84 201,137 330,137 88,0 169,-24 239,-66 37,-22 41,-60 27,-81 -11,-18 -31,-27 -63,-19 -11,2 -24,10 -40,18 -49,25 -104,39 -163,39 -99,0 -188,-40 -253,-105 -65,-65 -105,-155 -105,-254 0,-99 40,-188 105,-253 65,-65 154,-105 253,-105 59,0 114,14 163,38 16,9 29,16 40,19 32,7 52,-1 63,-20 14,-21 10,-58 -27,-80z"/>
  <path class="fil2" style="mask:url(#id4)" d="M1137 1137c-1,2 -3,4 -5,6 -120,117 -284,190 -466,190 -184,0 -350,-75 -471,-196 -120,-120 -195,-287 -195,-471 0,-184 75,-350 195,-471 121,-120 287,-195 471,-195 182,0 346,72 466,190 2,2 4,3 5,5 8,8 14,15 19,21 22,30 17,62 -3,78 -19,15 -53,15 -76,-5 -6,-5 -11,-11 -16,-17 -101,-101 -241,-163 -395,-163 -154,0 -293,62 -394,163 -101,101 -163,240 -163,394 0,154 62,294 163,395 101,101 240,163 394,163 154,0 294,-62 395,-163 5,-6 10,-12 16,-17 23,-21 57,-21 76,-5 20,16 25,48 3,77 -5,7 -11,14 -19,21z"/>
  <path class="fil3" style="mask:url(#id6)" d="M1132 628c1,6 1,12 1,19 4,87 -17,170 -55,241 -21,38 -58,43 -80,30 -19,-10 -28,-29 -22,-62 2,-11 9,-24 17,-41 23,-50 34,-105 32,-164 -1,-8 -1,-16 -2,-24l109 1z"/>
  <path class="fil3" style="mask:url(#id8)" d="M1077 442c39,72 60,155 56,242 -1,26 -4,51 -9,75l-110 -4c6,-24 10,-49 11,-75 2,-59 -10,-114 -33,-164 -8,-17 -15,-30 -17,-41 -6,-33 3,-52 22,-62 22,-13 59,-8 80,29z"/>
  <path class="fil3" style="mask:url(#id10)" d="M1319 809c28,-127 18,-258 -26,-376 -1,-2 -2,-4 -2,-7 -4,-9 -8,-18 -12,-25 -18,-32 -50,-41 -72,-29 -22,11 -36,42 -27,71 2,8 6,15 9,22 8,21 14,41 20,63l-1 0c30,116 20,235 -22,342 -3,7 -7,14 -9,22 -9,29 4,60 26,72 22,11 54,3 72,-29 4,-7 8,-15 12,-25 1,-2 2,-5 3,-7 12,-30 21,-62 28,-94l1 0z"/>
 </g>
</svg>
